<svg width="56" height="57" viewBox="0 0 56 57" fill="none" xmlns="http://www.w3.org/2000/svg">
<path d="M28.0062 13.8859C20.0607 13.8859 13.6518 20.4107 13.6518 28.5C13.6518 36.5893 20.0607 43.1141 28.0062 43.1141C35.9518 43.1141 42.3607 36.5893 42.3607 28.5C42.3607 20.4107 35.9518 13.8859 28.0062 13.8859ZM28.0062 38.0011C22.8716 38.0011 18.674 33.7402 18.674 28.5C18.674 23.2598 22.8591 18.9989 28.0062 18.9989C33.1534 18.9989 37.3385 23.2598 37.3385 28.5C37.3385 33.7402 33.1409 38.0011 28.0062 38.0011ZM46.296 13.2881C46.296 15.1833 44.7969 16.6968 42.9479 16.6968C41.0865 16.6968 39.5998 15.1705 39.5998 13.2881C39.5998 11.4057 41.0989 9.87945 42.9479 9.87945C44.7969 9.87945 46.296 11.4057 46.296 13.2881ZM55.8032 16.7477C55.5909 12.1816 54.5664 8.13695 51.2808 4.80459C48.0076 1.47222 44.0348 0.429265 39.5498 0.200324C34.9274 -0.0667745 21.0726 -0.0667745 16.4502 0.200324C11.9777 0.416546 8.00491 1.4595 4.71924 4.79187C1.43358 8.12423 0.42164 12.1689 0.196765 16.735C-0.0655884 21.441 -0.0655884 35.5463 0.196765 40.2523C0.409147 44.8184 1.43358 48.863 4.71924 52.1954C8.00491 55.5278 11.9652 56.5707 16.4502 56.7997C21.0726 57.0668 34.9274 57.0668 39.5498 56.7997C44.0348 56.5835 48.0076 55.5405 51.2808 52.1954C54.5539 48.863 55.5784 44.8184 55.8032 40.2523C56.0656 35.5463 56.0656 21.4537 55.8032 16.7477ZM49.8316 45.3017C48.8571 47.7947 46.9707 49.7152 44.5095 50.72C40.8241 52.2081 32.079 51.8647 28.0062 51.8647C23.9335 51.8647 15.1759 52.1954 11.503 50.72C9.05432 49.7279 7.16788 47.8074 6.18093 45.3017C4.71924 41.5496 5.05655 32.6464 5.05655 28.5C5.05655 24.3536 4.73173 15.4376 6.18093 11.6983C7.15538 9.20534 9.04183 7.28478 11.503 6.27998C15.1884 4.79187 23.9335 5.13528 28.0062 5.13528C32.079 5.13528 40.8366 4.80459 44.5095 6.27998C46.9582 7.27206 48.8446 9.19263 49.8316 11.6983C51.2933 15.4504 50.9559 24.3536 50.9559 28.5C50.9559 32.6464 51.2933 41.5624 49.8316 45.3017Z" fill="#EAFFFC"/>
</svg>
