<svg width="52" height="52" viewBox="0 0 52 52" fill="none" xmlns="http://www.w3.org/2000/svg">
<path d="M26 0C11.6476 0 0 11.6476 0 26C0 40.3524 11.6476 52 26 52C40.3524 52 52 40.3524 52 26C52 11.6476 40.3524 0 26 0ZM36.5573 38.2556C36.1169 38.2556 35.8444 38.1194 35.4355 37.8782C28.8935 33.9363 21.2823 33.7685 13.7653 35.3097C13.3565 35.4145 12.8218 35.5823 12.5177 35.5823C11.5008 35.5823 10.8613 34.775 10.8613 33.9258C10.8613 32.846 11.5008 32.3323 12.2871 32.1645C20.8734 30.2669 29.6484 30.4347 37.1339 34.9113C37.7734 35.3202 38.1508 35.6871 38.1508 36.6411C38.1508 37.5952 37.4065 38.2556 36.5573 38.2556ZM39.3774 31.3782C38.8323 31.3782 38.4653 31.1371 38.0879 30.9379C31.5355 27.0589 21.7645 25.4968 13.0734 27.8556C12.5702 27.9919 12.2976 28.1282 11.8258 28.1282C10.704 28.1282 9.79194 27.2161 9.79194 26.0944C9.79194 24.9726 10.3371 24.2282 11.4169 23.9242C14.3315 23.1065 17.3089 22.4984 21.6702 22.4984C28.4742 22.4984 35.0476 24.1863 40.2266 27.2685C41.0758 27.7718 41.4113 28.4218 41.4113 29.3339C41.4008 30.4661 40.5202 31.3782 39.3774 31.3782ZM42.6274 23.3895C42.0823 23.3895 41.7468 23.2532 41.275 22.9806C33.8105 18.525 20.4645 17.4556 11.8258 19.8669C11.4484 19.9718 10.9766 20.1395 10.4734 20.1395C9.08952 20.1395 8.03064 19.0597 8.03064 17.6653C8.03064 16.2395 8.91129 15.4323 9.85484 15.1597C13.5452 14.0798 17.6758 13.5661 22.1734 13.5661C29.8266 13.5661 37.8468 15.1597 43.7073 18.5774C44.525 19.0492 45.0597 19.6992 45.0597 20.9468C45.0597 22.3726 43.9065 23.3895 42.6274 23.3895Z" fill="#EAFFFC"/>
</svg>
