<svg width="70" height="49" viewBox="0 0 70 49" fill="none" xmlns="http://www.w3.org/2000/svg">
<path d="M68.539 7.66901C67.7316 4.64479 65.3607 2.27135 62.349 1.46745C56.8894 0 35 0 35 0C35 0 13.1106 0 7.65104 1.46745C4.63933 2.27135 2.2684 4.64479 1.461 7.66901C0 13.1432 0 24.551 0 24.551C0 24.551 0 35.9589 1.461 41.4331C2.2684 44.4573 4.63933 46.7286 7.65104 47.5326C13.1106 49 35 49 35 49C35 49 56.8894 49 62.349 47.5326C65.3607 46.7286 67.7316 44.4445 68.539 41.4331C70 35.9589 70 24.551 70 24.551C70 24.551 70 13.1432 68.539 7.66901ZM27.8488 34.9125V14.1896L46.137 24.551L27.8488 34.9125Z" fill="#EAFFFC"/>
</svg>
