<svg id="chord" width="30" height="40" viewBox="0 0 30 40" xmlns="http://www.w3.org/2000/svg">
<path d="M0 35C0 37.7578 2.24219 40 5 40H17.5V30C17.5 28.6172 18.6172 27.5 20 27.5H30V5C30 2.24219 27.7578 0 25 0H5C2.24219 0 0 2.24219 0 5V35ZM13.3828 5.88281L5.88281 13.3828C5.39844 13.8672 4.60156 13.8672 4.11719 13.3828C3.63281 12.8984 3.63281 12.1016 4.11719 11.6172L11.6172 4.11719C12.1016 3.63281 12.8984 3.63281 13.3828 4.11719C13.8672 4.60156 13.8672 5.39844 13.3828 5.88281ZM20.8828 8.38281L8.38281 20.8828C7.89844 21.3672 7.10156 21.3672 6.61719 20.8828C6.13281 20.3984 6.13281 19.6016 6.61719 19.1172L19.1172 6.61719C19.6016 6.13281 20.3984 6.13281 20.8828 6.61719C21.3672 7.10156 21.3672 7.89844 20.8828 8.38281ZM30 30H20V40L30 30Z"/>
</svg>
