<svg id="home" width="45" height="40" viewBox="0 0 45 40" xmlns="http://www.w3.org/2000/svg">
<path d="M44.9882 19.9609C44.9882 21.3672 43.8162 22.4688 42.488 22.4688H39.9878L40.0425 34.9844C40.0425 35.1953 40.0268 35.4062 40.0034 35.6172V36.875C40.0034 38.6016 38.6048 40 36.8781 40H35.628C35.5421 40 35.4561 40 35.3702 39.9922C35.2608 40 35.1514 40 35.042 40H32.5028H30.6276C28.9009 40 27.5023 38.6016 27.5023 36.875V35V30C27.5023 28.6172 26.3851 27.5 25.0021 27.5H20.0017C18.6188 27.5 17.5015 28.6172 17.5015 30V35V36.875C17.5015 38.6016 16.1029 40 14.3762 40H12.5011H10.0087C9.89147 40 9.77427 39.9922 9.65707 39.9844C9.56331 39.9922 9.46956 40 9.3758 40H8.12569C6.39898 40 5.00043 38.6016 5.00043 36.875V28.125C5.00043 28.0547 5.00043 27.9766 5.00824 27.9063V22.4688H2.50021C1.09384 22.4688 0 21.375 0 19.9609C0 19.2578 0.234395 18.6328 0.781316 18.0859L20.8143 0.625C21.3612 0.078125 21.9862 0 22.5332 0C23.0801 0 23.7051 0.15625 24.1739 0.546875L44.1288 18.0859C44.7538 18.6328 45.0663 19.2578 44.9882 19.9609Z"/>
</svg>
