<svg id="music" width="40" height="40" viewBox="0 0 40 40" xmlns="http://www.w3.org/2000/svg">
<path d="M38.9922 0.496354C39.625 0.965055 40 1.71498 40 2.50395V8.12836V28.7512C40 32.2039 36.6406 35.0005 32.5 35.0005C28.3594 35.0005 25 32.2039 25 28.7512C25 25.2984 28.3594 22.5018 32.5 22.5018C33.375 22.5018 34.2188 22.6268 35 22.8612V11.4874L15 17.4867V33.7507C15 37.2034 11.6406 40 7.5 40C3.35938 40 0 37.2034 0 33.7507C0 30.2979 3.35938 27.5013 7.5 27.5013C8.375 27.5013 9.21875 27.6263 10 27.8607V15.6276V10.0032C10 8.90172 10.7266 7.92526 11.7813 7.60498L36.7812 0.10577C37.5391 -0.120768 38.3594 0.019842 38.9922 0.496354Z"/>
</svg>
