<svg width="45" height="39" viewBox="0 0 45 39" fill="none" xmlns="http://www.w3.org/2000/svg">
<path d="M12.8048 10.0577C10.5079 7.75833 10.5079 4.02384 12.8048 1.7245C15.1017 -0.574834 18.8205 -0.574834 21.1174 1.7245L22.5002 3.11336L23.8831 1.7245C26.18 -0.574834 29.8988 -0.574834 32.1957 1.7245C34.4926 4.02384 34.4926 7.75833 32.1957 10.0577L24.2581 18.0205C23.7737 18.5066 23.1409 18.7458 22.5002 18.7458C21.8596 18.7458 21.2268 18.5066 20.7424 18.0205L12.8048 10.0577ZM44.3911 25.4432C45.4146 26.8166 45.1177 28.7456 43.727 29.7564L33.8363 36.9553C32.0082 38.2824 29.805 39 27.5315 39H15.0002H2.50003C1.1172 39 0 37.8966 0 36.5309V31.5927C0 30.227 1.1172 29.1237 2.50003 29.1237H5.37506L8.88291 26.3459C10.6564 24.9416 12.8595 24.1855 15.133 24.1855H21.2502H22.5002H27.5003C28.8831 24.1855 30.0003 25.2889 30.0003 26.6546C30.0003 28.0203 28.8831 29.1237 27.5003 29.1237H22.5002H21.2502C20.5627 29.1237 20.0002 29.6792 20.0002 30.3582C20.0002 31.0372 20.5627 31.5927 21.2502 31.5927H30.6722L40.0239 24.7873C41.4145 23.7765 43.3677 24.0697 44.3911 25.4432ZM15.1252 29.1237H15.0549C15.0783 29.1237 15.1017 29.1237 15.1252 29.1237Z" fill="#EDF8FF"/>
</svg>
